<svg width="1440" height="778" viewBox="0 0 1440 778" fill="none" xmlns="http://www.w3.org/2000/svg">
<g clip-path="url(#clip0_276_23)">
<rect width="1440" height="778" fill="white"/>
<rect x="1110.42" y="265.466" width="284.287" height="589.498" rx="36.7201" transform="rotate(10.0389 1110.42 265.466)" fill="#1C1B2D"/>
<rect x="1113.3" y="269.6" width="276.266" height="582.363" rx="33.5621" transform="rotate(10.0389 1113.3 269.6)" fill="#23213B"/>
<rect x="1082.91" y="405.507" width="1.78236" height="41.9159" rx="0.789219" transform="rotate(10.0389 1082.91 405.507)" fill="#1C1B2D"/>
<rect x="1073.74" y="457.32" width="1.78236" height="41.9159" rx="0.789219" transform="rotate(10.0389 1073.74 457.32)" fill="#1C1B2D"/>
<rect x="1089.75" y="366.868" width="2.67354" height="20.512" rx="0.789219" transform="rotate(10.0389 1089.75 366.868)" fill="#1C1B2D"/>
<rect x="1360.5" y="483.631" width="2.67354" height="65.1034" rx="0.789219" transform="rotate(10.0389 1360.5 483.631)" fill="#1C1B2D"/>
<rect x="1118.93" y="278.747" width="261.116" height="566.31" rx="27.6794" transform="rotate(10.0389 1118.93 278.747)" fill="white"/>
<rect x="1120.39" y="326.864" width="242.634" height="44.6019" rx="4.46019" transform="rotate(10.0389 1120.39 326.864)" fill="#F8F9F9"/>
<rect x="1127.69" y="336.764" width="27.6532" height="27.6532" rx="13.8266" transform="rotate(10.0389 1127.69 336.764)" fill="#F24149"/>
<path d="M1137.11 354.977L1139.53 345.683L1142.01 346.405L1139.07 355.548L1137.11 354.977ZM1136.83 359.582C1136.41 359.459 1136.1 359.222 1135.89 358.871C1135.7 358.524 1135.66 358.165 1135.77 357.793C1135.89 357.397 1136.12 357.103 1136.46 356.913C1136.82 356.726 1137.22 356.694 1137.64 356.818C1138.07 356.945 1138.38 357.18 1138.56 357.523C1138.75 357.87 1138.79 358.242 1138.67 358.639C1138.56 359.01 1138.33 359.291 1137.99 359.482C1137.65 359.676 1137.27 359.709 1136.83 359.582Z" fill="white"/>
<path d="M1170.78 363.004L1172.42 353.781L1174 354.061L1172.37 363.284L1170.78 363.004ZM1164.96 361.973L1166.59 352.75L1168.17 353.03L1166.54 362.253L1164.96 361.973ZM1167.02 358.153L1167.25 356.861L1172.03 357.708L1171.81 358.999L1167.02 358.153ZM1173.63 363.508L1178.64 354.882L1180.4 355.194L1182.14 365.014L1180.47 364.718L1179.18 356.88L1175.28 363.799L1173.63 363.508ZM1175.52 361.6L1176.16 360.423L1180.71 361.227L1180.91 362.554L1175.52 361.6ZM1184.57 365.444L1185.97 357.499L1183.26 357.018L1183.49 355.74L1190.48 356.979L1190.26 358.257L1187.54 357.776L1186.14 365.721L1184.57 365.444ZM1190.15 366.433L1191.79 357.21L1193.37 357.49L1191.73 366.713L1190.15 366.433ZM1202.63 368.641L1204.26 359.418L1205.84 359.698L1204.21 368.921L1202.63 368.641ZM1196.81 367.61L1198.44 358.387L1200.02 358.667L1198.39 367.89L1196.81 367.61ZM1198.87 363.79L1199.1 362.499L1203.88 363.345L1203.65 364.637L1198.87 363.79ZM1205.48 369.145L1210.48 360.519L1212.25 360.832L1213.99 370.652L1212.32 370.356L1211.03 362.518L1207.12 369.437L1205.48 369.145ZM1207.36 367.237L1208.01 366.06L1212.55 366.865L1212.75 368.191L1207.36 367.237ZM1216.41 371.081L1217.82 363.136L1215.11 362.656L1215.33 361.378L1222.33 362.616L1222.1 363.894L1219.39 363.414L1217.98 371.359L1216.41 371.081ZM1222 372.07L1223.63 362.847L1225.21 363.127L1223.58 372.35L1222 372.07ZM1230.97 373.821C1230.38 373.717 1229.89 373.516 1229.49 373.219C1229.1 372.914 1228.82 372.53 1228.66 372.066C1228.5 371.594 1228.47 371.055 1228.58 370.449L1230.16 370.729C1230.11 371.019 1230.1 371.281 1230.15 371.516C1230.2 371.751 1230.31 371.947 1230.47 372.102C1230.64 372.251 1230.88 372.351 1231.18 372.404C1231.48 372.457 1231.72 372.442 1231.92 372.359C1232.12 372.276 1232.27 372.14 1232.39 371.952C1232.51 371.757 1232.6 371.523 1232.65 371.251L1233.82 364.65L1235.4 364.93L1234.23 371.531C1234.07 372.427 1233.7 373.072 1233.11 373.466C1232.53 373.854 1231.82 373.972 1230.97 373.821ZM1239.09 375.258C1238.42 375.14 1237.84 374.901 1237.34 374.541C1236.85 374.183 1236.49 373.703 1236.26 373.101C1236.04 372.5 1236.01 371.787 1236.15 370.961L1237.17 365.243L1238.75 365.523L1237.73 371.254C1237.64 371.755 1237.65 372.183 1237.76 372.537C1237.87 372.892 1238.06 373.179 1238.33 373.399C1238.61 373.611 1238.96 373.754 1239.37 373.827C1239.79 373.902 1240.17 373.886 1240.49 373.781C1240.83 373.669 1241.11 373.464 1241.32 373.167C1241.55 372.871 1241.7 372.473 1241.79 371.973L1242.81 366.241L1244.39 366.521L1243.37 372.239C1243.23 373.065 1242.94 373.721 1242.52 374.209C1242.1 374.696 1241.59 375.022 1240.99 375.187C1240.39 375.353 1239.76 375.377 1239.09 375.258ZM1244.53 376.059L1246.16 366.836L1249.14 367.363C1250.21 367.552 1251.06 367.897 1251.69 368.398C1252.32 368.9 1252.75 369.528 1252.96 370.281C1253.18 371.026 1253.21 371.874 1253.04 372.822C1252.87 373.753 1252.56 374.536 1252.09 375.169C1251.64 375.795 1251.03 376.235 1250.26 376.488C1249.49 376.743 1248.58 376.775 1247.51 376.586L1244.53 376.059ZM1246.35 374.994L1247.67 375.228C1248.47 375.369 1249.12 375.353 1249.62 375.179C1250.13 374.998 1250.53 374.683 1250.8 374.234C1251.09 373.778 1251.3 373.212 1251.42 372.535C1251.54 371.85 1251.54 371.248 1251.42 370.729C1251.32 370.203 1251.06 369.767 1250.64 369.421C1250.23 369.068 1249.62 368.821 1248.83 368.679L1247.51 368.446L1246.35 374.994ZM1253.77 377.694L1255.4 368.471L1256.98 368.751L1255.35 377.974L1253.77 377.694ZM1264.59 379.774C1263.71 379.617 1262.96 379.28 1262.34 378.763C1261.74 378.24 1261.3 377.588 1261.04 376.808C1260.78 376.019 1260.74 375.15 1260.91 374.202C1261.07 373.262 1261.41 372.47 1261.93 371.827C1262.44 371.176 1263.07 370.707 1263.82 370.423C1264.57 370.14 1265.4 370.077 1266.28 370.235C1267.19 370.395 1267.95 370.737 1268.56 371.263C1269.17 371.788 1269.61 372.444 1269.86 373.231C1270.11 374.01 1270.15 374.869 1269.98 375.809C1269.82 376.757 1269.48 377.558 1268.98 378.212C1268.47 378.857 1267.84 379.32 1267.08 379.603C1266.33 379.877 1265.5 379.934 1264.59 379.774ZM1264.86 378.353C1265.45 378.457 1265.99 378.416 1266.47 378.231C1266.96 378.036 1267.37 377.71 1267.69 377.251C1268.02 376.792 1268.24 376.216 1268.36 375.522C1268.49 374.828 1268.47 374.21 1268.33 373.667C1268.18 373.124 1267.91 372.682 1267.51 372.341C1267.12 371.991 1266.63 371.764 1266.04 371.66C1265.46 371.556 1264.92 371.601 1264.43 371.795C1263.95 371.981 1263.53 372.303 1263.2 372.76C1262.87 373.218 1262.65 373.795 1262.53 374.489C1262.4 375.183 1262.42 375.801 1262.57 376.344C1262.72 376.888 1263 377.335 1263.39 377.685C1263.78 378.026 1264.27 378.249 1264.86 378.353ZM1270.71 380.694L1272.35 371.471L1273.93 371.751L1277.19 379.204L1278.37 372.537L1279.95 372.817L1278.32 382.04L1276.73 381.76L1273.47 374.32L1272.29 380.974L1270.71 380.694ZM1280.17 382.368L1281.8 373.145L1283.38 373.425L1281.97 381.409L1286.08 382.137L1285.86 383.376L1280.17 382.368ZM1287.4 383.648L1289.03 374.425L1290.62 374.705L1288.98 383.928L1287.4 383.648ZM1290.84 384.256L1292.47 375.033L1294.05 375.313L1297.31 382.766L1298.49 376.099L1300.07 376.379L1298.44 385.602L1296.86 385.322L1293.6 377.882L1292.42 384.536L1290.84 384.256ZM1300.29 385.93L1301.93 376.707L1307.88 377.762L1307.66 379.04L1303.28 378.265L1302.81 380.914L1306.79 381.618L1306.57 382.87L1302.59 382.165L1302.1 384.932L1306.48 385.707L1306.25 386.985L1300.29 385.93Z" fill="#8C8A8A"/>
<path d="M1333.57 380.318L1334.44 375.399L1335.14 375.523L1336.98 379.741L1337.65 375.967L1338.35 376.092L1337.48 381.011L1336.78 380.886L1334.94 376.676L1334.27 380.442L1333.57 380.318ZM1340.07 381.557C1339.74 381.498 1339.45 381.367 1339.22 381.166C1338.98 380.964 1338.81 380.712 1338.7 380.408C1338.6 380.101 1338.59 379.764 1338.65 379.399C1338.72 379.024 1338.85 378.712 1339.06 378.463C1339.26 378.209 1339.51 378.029 1339.8 377.922C1340.1 377.814 1340.41 377.79 1340.74 377.849C1341.08 377.909 1341.37 378.039 1341.6 378.24C1341.84 378.441 1342.01 378.693 1342.11 378.996C1342.21 379.3 1342.23 379.639 1342.17 380.014C1342.1 380.389 1341.96 380.7 1341.76 380.949C1341.56 381.199 1341.32 381.378 1341.02 381.485C1340.73 381.593 1340.41 381.616 1340.07 381.557ZM1340.18 380.952C1340.37 380.986 1340.55 380.97 1340.73 380.904C1340.9 380.838 1341.05 380.723 1341.18 380.556C1341.31 380.386 1341.4 380.163 1341.45 379.887C1341.5 379.61 1341.49 379.373 1341.43 379.173C1341.37 378.969 1341.27 378.806 1341.13 378.685C1340.99 378.563 1340.83 378.486 1340.64 378.453C1340.45 378.42 1340.27 378.436 1340.09 378.502C1339.92 378.567 1339.76 378.685 1339.63 378.855C1339.51 379.021 1339.42 379.242 1339.37 379.519C1339.32 379.795 1339.33 380.035 1339.39 380.239C1339.45 380.439 1339.55 380.6 1339.69 380.721C1339.84 380.843 1340 380.92 1340.18 380.952ZM1343.27 382.036L1342.86 378.31L1343.55 378.433L1343.81 381.522L1343.67 381.491L1345.05 378.698L1345.84 378.838L1346.17 381.934L1346.04 381.917L1347.33 379.101L1348.04 379.227L1346.37 382.584L1345.65 382.456L1345.29 379.226L1345.43 379.251L1343.99 382.163L1343.27 382.036Z" fill="#B9B8B8"/>
<rect x="1111.98" y="389.696" width="235.498" height="181.043" rx="4.2432" transform="rotate(10.0389 1111.98 389.696)" fill="#F8F9F9"/>
<path d="M1170.26 421.558C1170.94 417.712 1174.61 415.146 1178.46 415.827L1273.16 432.593C1277.01 433.274 1279.57 436.943 1278.89 440.789L1261.51 538.978L1152.88 519.747L1170.26 421.558Z" fill="#30A572"/>
<path d="M1271.16 581.629C1271.95 580.276 1218.64 522.914 1218.64 522.914C1211.94 515.864 1207.9 515.057 1199.26 519.484C1199.26 519.484 1129.59 555.035 1129.86 556.556L1129.84 556.564C1129.85 556.577 1129.85 556.588 1129.86 556.601C1130.13 558.113 1130.65 559.569 1131.41 560.907C1131.73 561.472 1132.15 561.972 1132.54 562.485L1132.52 562.498C1132.55 562.538 1132.6 562.563 1132.63 562.603C1134.31 564.739 1136.63 566.339 1139.37 567.164C1139.41 567.177 1139.44 567.206 1139.48 567.219L1139.65 567.249C1140.07 567.365 1140.46 567.539 1140.89 567.616L1257.07 588.183C1262.79 589.196 1268.28 586.456 1271.09 581.754C1271.12 581.72 1271.16 581.699 1271.19 581.664L1271.16 581.629Z" fill="#D6D6D6"/>
<path fill-rule="evenodd" clip-rule="evenodd" d="M1130.24 556.216L1209.98 515.882L1271.03 581.139L1284.27 506.345C1285.04 502 1283.62 497.774 1280.8 494.796L1209.98 515.882L1150.69 471.763C1147.03 473.594 1144.25 477.077 1143.48 481.422L1130.24 556.216Z" fill="#EFF0F2"/>
<mask id="mask0_276_23" style="mask-type:alpha" maskUnits="userSpaceOnUse" x="1152" y="415" width="128" height="124">
<path d="M1170.26 421.558C1170.94 417.712 1174.61 415.146 1178.46 415.827L1273.16 432.593C1277.01 433.274 1279.57 436.943 1278.89 440.789L1261.51 538.978L1152.88 519.747L1170.26 421.558Z" fill="#EE4C37"/>
</mask>
<g mask="url(#mask0_276_23)">
<path d="M1238.28 426.778C1219.55 431.841 1176.15 451.546 1152.42 489.861C1145.81 448.113 1153.72 377.047 1238.28 426.778Z" fill="#298B61"/>
</g>
<path d="M1214.28 489.054C1214.85 487.303 1213.48 486.72 1212.4 488.442C1207.22 496.711 1200.42 494.448 1197.66 492.283C1183.22 477.201 1208.77 458.213 1220.98 450.438C1225.18 455.608 1237.33 469.25 1238.79 484.939C1238.92 505.731 1220.16 497.54 1218.86 489.855C1218.62 488.479 1217.67 488.546 1217.5 488.72C1215.18 490.732 1217.86 501.055 1219.48 505.965L1207.41 503.759C1209.46 499.586 1213.71 490.804 1214.28 489.054Z" fill="#FFC533"/>
<path d="M1178.37 446.144C1178.49 445.795 1178.21 445.679 1178 446.022C1176.96 447.671 1175.61 447.22 1175.06 446.788C1172.18 443.78 1177.27 439.993 1179.71 438.442C1180.55 439.473 1182.97 442.194 1183.26 445.323C1183.29 449.47 1179.54 447.837 1179.28 446.304C1179.24 446.029 1179.05 446.043 1179.01 446.078C1178.55 446.479 1179.09 448.538 1179.41 449.517L1177 449.077C1177.41 448.245 1178.26 446.493 1178.37 446.144Z" fill="#FFC533"/>
<path d="M1175.15 433.554L1181.38 422.315L1183.98 422.723L1186.46 435.325L1184.02 434.944L1182.26 425.141L1177.57 433.933L1175.15 433.554ZM1177.5 431.147L1178.39 429.455L1184.46 430.405L1184.77 432.287L1177.5 431.147Z" fill="white"/>
<rect x="1209.1" y="301.05" width="76.6416" height="22.2957" rx="11.1478" transform="rotate(10.0389 1209.1 301.05)" fill="#1C1B2D"/>
<ellipse cx="721.5" cy="807.5" rx="787.5" ry="189.5" fill="#D4EFE8"/>
<path d="M112.361 750.61C29.7577 750.61 -5.54757 706.86 -13 681.722V907.298L1453 916L1444.22 707.102C1444.22 711.936 1434.95 724.94 1397.91 738.283C1351.59 754.961 1346 738.283 1302.09 738.283C1258.17 738.283 1260.57 749.885 1202.28 752.786C1143.99 755.686 1116.04 723.055 1038.59 715.078C961.139 707.102 905.246 721.605 847.756 718.704C790.266 715.803 763.118 683.172 701.635 685.348C640.153 687.523 597.833 659.968 524.374 667.219C450.914 674.471 448.518 717.979 400.61 712.903C362.283 708.842 334.07 728.614 324.755 739.008C310.063 751.19 296.46 751.583 293 754C172.43 804.035 174.642 750.61 112.361 750.61Z" fill="white"/>
<path d="M288.895 576.307C291.197 575.625 292.563 573.261 292.006 570.925L260.664 439.631C260.063 437.113 257.475 435.614 254.992 436.345L48.1524 497.271C45.8308 497.955 44.4601 500.346 45.0435 502.695L77.6575 633.998C78.2783 636.497 80.8587 637.973 83.3276 637.241L175.505 609.918L191.773 605.096L288.895 576.307Z" fill="#F0F9E8"/>
<path d="M175.505 609.918L198.552 692L212.561 684.441L191.773 605.096L175.505 609.918Z" fill="#298B61"/>
<path d="M236.833 459L217.865 490.477C216.117 493.379 212.792 494.941 209.442 494.433L191.719 491.748C187.296 491.078 182.95 493.359 180.99 497.38L168.241 523.533C166.996 526.087 164.238 527.538 161.428 527.119L144.153 524.541C138.602 523.712 133.095 526.291 130.177 531.085L108.951 565.956L106.124 555.903C105.365 553.205 102.613 551.587 99.8867 552.236C97.1577 552.886 95.4296 555.576 95.9728 558.328L101.976 588.742L134.052 581.339C136.508 580.773 138.247 578.586 138.247 576.065C138.247 572.721 135.244 570.176 131.945 570.726L118.716 572.931L137.739 540.83C139.722 537.484 143.577 535.726 147.404 536.421L166.9 539.966C169.759 540.486 172.616 539.048 173.902 536.443L189.865 504.107L212.243 508.015C216.411 508.742 220.598 506.829 222.775 503.2L245.668 465.045L236.833 459Z" fill="#F24149"/>
<circle cx="353.974" cy="434.291" r="56.7691" transform="rotate(31.3792 353.974 434.291)" fill="#FFC533"/>
<circle cx="353.974" cy="434.291" r="46.5506" transform="rotate(31.3792 353.974 434.291)" fill="#FFD862"/>
<path d="M334.955 459.02L367.134 406.26L372.746 409.683L340.567 462.444L334.955 459.02ZM340.672 454.191C337.529 452.274 334.768 450.025 332.389 447.445C330.033 444.827 328.386 442.308 327.449 439.888L334.712 434.923C335.666 437.148 337.044 439.349 338.847 441.527C340.711 443.69 342.821 445.491 345.179 446.928C346.975 448.024 348.518 448.734 349.809 449.059C351.16 449.37 352.291 449.367 353.203 449.05C354.115 448.733 354.822 448.163 355.324 447.34C355.963 446.293 356.053 445.218 355.595 444.118C355.16 442.979 354.383 441.812 353.264 440.617C352.168 439.383 350.899 438.096 349.458 436.755C348.077 435.4 346.724 433.958 345.397 432.43C344.107 430.925 343.04 429.35 342.195 427.705C341.35 426.06 340.908 424.302 340.869 422.43C340.867 420.581 341.505 418.608 342.783 416.513C344.153 414.268 345.995 412.594 348.311 411.49C350.687 410.373 353.422 410.013 356.516 410.411C359.67 410.795 363.1 412.116 366.804 414.376C369.274 415.882 371.523 417.665 373.553 419.724C375.606 421.746 377.195 423.896 378.321 426.174L371.304 431.366C370.109 429.2 368.744 427.315 367.207 425.71C365.693 424.068 364.056 422.711 362.298 421.638C360.539 420.565 358.973 419.893 357.599 419.62C356.226 419.346 355.09 419.398 354.193 419.775C353.319 420.115 352.619 420.715 352.094 421.575C351.478 422.586 351.387 423.66 351.823 424.798C352.281 425.899 353.069 427.047 354.188 428.243C355.307 429.439 356.557 430.714 357.937 432.07C359.356 433.448 360.721 434.871 362.033 436.339C363.383 437.83 364.48 439.397 365.325 441.042C366.17 442.687 366.594 444.434 366.595 446.283C366.634 448.155 366.026 450.12 364.771 452.178C363.425 454.386 361.575 456.03 359.222 457.11C356.869 458.191 354.115 458.539 350.961 458.155C347.844 457.795 344.414 456.473 340.672 454.191Z" fill="#D88000"/>
<circle cx="218.545" cy="347.546" r="42.3976" transform="rotate(-16.2044 218.545 347.546)" fill="#FFC533"/>
<circle cx="218.545" cy="347.545" r="34.766" transform="rotate(-16.2044 218.545 347.545)" fill="#FFD862"/>
<path d="M222.655 370.685L209.775 326.364L214.49 324.993L227.37 369.314L222.655 370.685ZM222.873 365.099C220.232 365.866 217.601 366.256 214.98 366.268C212.35 366.248 210.131 365.887 208.325 365.185L209.247 358.679C210.953 359.274 212.861 359.623 214.971 359.726C217.102 359.788 219.158 359.531 221.138 358.956C222.647 358.517 223.816 358.024 224.646 357.476C225.497 356.888 226.066 356.263 226.35 355.601C226.635 354.938 226.677 354.261 226.476 353.57C226.22 352.69 225.674 352.099 224.836 351.797C223.989 351.463 222.954 351.304 221.731 351.318C220.499 351.301 219.15 351.353 217.685 351.472C216.242 351.55 214.765 351.57 213.254 351.532C211.775 351.485 210.369 351.28 209.036 350.917C207.704 350.554 206.511 349.912 205.46 348.991C204.439 348.06 203.673 346.715 203.162 344.955C202.614 343.069 202.619 341.209 203.177 339.377C203.758 337.504 204.937 335.814 206.715 334.309C208.516 332.763 210.972 331.538 214.084 330.634C216.158 330.031 218.275 329.689 220.433 329.607C222.581 329.494 224.567 329.701 226.391 330.227L225.719 336.712C223.923 336.279 222.195 336.083 220.536 336.122C218.868 336.129 217.295 336.348 215.818 336.777C214.341 337.206 213.181 337.731 212.338 338.351C211.496 338.97 210.952 339.623 210.708 340.307C210.455 340.96 210.433 341.648 210.643 342.371C210.89 343.22 211.437 343.811 212.283 344.144C213.121 344.446 214.151 344.59 215.374 344.576C216.597 344.561 217.93 344.515 219.373 344.436C220.848 344.349 222.32 344.313 223.79 344.328C225.292 344.335 226.709 344.52 228.042 344.883C229.375 345.245 230.551 345.892 231.571 346.822C232.623 347.744 233.4 349.069 233.903 350.798C234.442 352.653 234.416 354.501 233.827 356.342C233.237 358.184 232.042 359.878 230.241 361.424C228.472 362.96 226.016 364.186 222.873 365.099Z" fill="#D88000"/>
<circle cx="246.346" cy="223.346" r="35.8776" transform="rotate(20.9834 246.346 223.346)" fill="#FFC533"/>
<circle cx="246.346" cy="223.347" r="29.4196" transform="rotate(20.9834 246.346 223.347)" fill="#FFD862"/>
<path d="M237.503 240.469L251.489 204.002L255.369 205.49L241.383 241.957L237.503 240.469ZM240.507 236.815C238.334 235.981 236.362 234.898 234.588 233.566C232.825 232.207 231.514 230.829 230.656 229.432L234.605 225.517C235.451 226.791 236.559 228.002 237.928 229.151C239.333 230.283 240.851 231.161 242.48 231.786C243.721 232.262 244.762 232.528 245.601 232.583C246.476 232.622 247.179 232.491 247.71 232.19C248.24 231.889 248.615 231.454 248.833 230.885C249.111 230.161 249.045 229.483 248.634 228.851C248.234 228.193 247.618 227.556 246.786 226.941C245.964 226.299 245.029 225.644 243.98 224.974C242.967 224.289 241.961 223.547 240.962 222.749C239.989 221.96 239.146 221.103 238.433 220.177C237.72 219.251 237.245 218.208 237.007 217.049C236.795 215.9 236.967 214.601 237.522 213.153C238.117 211.601 239.072 210.35 240.386 209.4C241.735 208.434 243.394 207.899 245.363 207.793C247.367 207.672 249.65 208.103 252.21 209.085C253.917 209.739 255.519 210.591 257.015 211.64C258.522 212.662 259.755 213.818 260.715 215.105L256.945 219.133C255.955 217.923 254.891 216.907 253.753 216.085C252.625 215.236 251.453 214.579 250.237 214.113C249.022 213.647 247.971 213.407 247.086 213.394C246.201 213.381 245.501 213.543 244.987 213.879C244.482 214.19 244.115 214.643 243.887 215.238C243.619 215.936 243.686 216.614 244.086 217.272C244.496 217.904 245.117 218.528 245.949 219.144C246.781 219.759 247.704 220.41 248.716 221.095C249.755 221.79 250.766 222.519 251.749 223.282C252.758 224.054 253.619 224.904 254.332 225.83C255.045 226.756 255.507 227.793 255.719 228.943C255.957 230.102 255.803 231.393 255.257 232.815C254.672 234.341 253.71 235.574 252.37 236.514C251.031 237.454 249.359 237.985 247.354 238.106C245.376 238.237 243.093 237.807 240.507 236.815Z" fill="#D88000"/>
<path d="M709.512 541C709.825 540.673 710.256 540.483 710.71 540.473C711.163 540.462 711.602 540.633 711.93 540.946L720.585 549.221L728.86 540.566C729.175 540.247 729.603 540.065 730.052 540.059C730.5 540.053 730.933 540.223 731.257 540.533C731.582 540.843 731.771 541.268 731.785 541.716C731.799 542.164 731.636 542.6 731.332 542.93L721.875 552.821C721.562 553.149 721.131 553.339 720.678 553.349C720.224 553.359 719.785 553.189 719.457 552.875L709.566 543.419C709.238 543.105 709.048 542.674 709.038 542.221C709.028 541.767 709.198 541.328 709.512 541Z" fill="white"/>
</g>
<defs>
<clipPath id="clip0_276_23">
<rect width="1440" height="778" fill="white"/>
</clipPath>
</defs>
</svg>
