<svg width="716" height="431" viewBox="0 0 716 431" fill="none" xmlns="http://www.w3.org/2000/svg">
<path fill-rule="evenodd" clip-rule="evenodd" d="M140.96 525.211C113.745 478.904 70.645 440.159 63.8017 386.884C56.0957 326.894 50.3967 245.866 100.778 212.4C156.285 175.53 235.323 259.459 296.253 232.478C366.947 201.173 367.985 56.2666 445.216 59.8751C516.358 63.1991 495.026 194.382 545.975 244.146C592.361 289.453 687.321 269.842 718.429 326.734C748.442 381.622 706.676 448.611 690.873 509.139C675.965 566.243 670.396 630.109 628.401 671.575C587.039 712.417 522.797 712.868 467.239 729.962C413.554 746.479 359.225 790.358 306.658 770.567C252.793 750.288 240.303 680.094 208.091 632.396C184.088 596.854 162.691 562.186 140.96 525.211Z" fill="#CCE4E6"/>
<path d="M450.517 397.671L420.913 411.622L336.183 334.719C309.233 390.253 287.41 410.249 266.766 407.413C215.176 422.153 205.141 407.21 187.633 371.351C187.119 370.298 187.17 369.048 187.8 368.059C222.859 313.067 293.106 255.409 342.989 230.468C383.278 210.323 431.915 335.286 450.517 397.671Z" fill="#298B61"/>
<path d="M412.791 448.713C411.158 448.713 412.791 430.338 412.791 420.47L452.604 400.393L479.486 422.511C515.964 433.673 518.959 443.268 516.577 446.671C498.542 455.518 473.248 453.704 453.625 448.713H440.694C437.155 444.63 437.405 449.507 437.972 452.456C430.259 451.208 414.425 448.713 412.791 448.713Z" fill="#298B61"/>
<path d="M285.141 157.093C286.729 174.221 296.03 207.455 320.53 200.649C314.859 191.575 305.014 169.888 311.003 158.455C314.065 175.015 325.158 206.502 345.031 199.969C368.557 192.234 386.589 169.848 388.431 149.578C368.784 155.23 328.969 143.012 308.728 135.381C308.344 136.423 307.968 137.535 307.6 138.718C306.919 142.461 301.475 151.377 285.141 157.093Z" fill="#FA5C63"/>
<path d="M388.586 146.204C388.586 129.327 368.623 116.714 358.642 112.517C357.394 120.683 349.386 137.357 327.336 138.718C331.916 126.287 318.256 109.454 308.728 135.381C328.969 143.012 368.784 155.23 388.431 149.578C388.534 148.446 388.586 147.32 388.586 146.204Z" fill="#FA5C63"/>
<path d="M358.642 112.517C368.623 116.714 388.586 129.327 388.586 146.204C388.586 147.32 388.534 148.446 388.431 149.578C389.706 149.211 390.895 148.769 391.989 148.246C410.773 139.263 406.167 121.364 401.517 113.538C401.517 105.711 389.607 90.0583 375.656 83.9333C364.495 79.0333 365.107 84.8407 366.808 88.3569C363.179 86.5421 353.333 82.5722 342.989 81.2111C332.644 79.85 337.091 85.4079 340.607 88.3569C316.651 89.9903 306.919 119.209 305.898 134.295C306.791 134.644 307.736 135.007 308.728 135.381C318.256 109.454 331.916 126.287 327.336 138.718C349.386 137.357 357.394 120.683 358.642 112.517Z" fill="#000100"/>
<path d="M376.677 463.685C375.043 463.685 374.635 443.949 374.635 434.081L416.489 415.365L444.392 441.227C480.87 452.388 485.226 461.984 482.844 465.386C468.144 477.364 425.223 470.377 405.6 465.386L404.579 463.685C401.041 459.602 401.29 464.479 401.857 467.428C394.144 466.18 378.31 463.685 376.677 463.685Z" fill="#30A572"/>
<path d="M418.531 410.261L372.253 432.039L331.76 364.323C304.81 419.857 257.238 432.039 235.461 432.039C198.265 432.039 174.942 424.783 157.019 389.168C156.492 388.12 156.545 386.869 157.175 385.88C192.234 330.887 262.481 273.23 312.364 248.288C352.653 228.144 399.929 347.877 418.531 410.261Z" fill="#30A572"/>
<path d="M335.843 350.032L346.051 325.872L382.461 349.351C398.367 346.464 404.078 351.474 401.857 363.983C392.947 380.218 380.406 368.074 374.295 359.219L335.843 350.032Z" fill="#FA5C63"/>
<g filter="url(#filter0_i_237_28)">
<path d="M393.373 161.468L409.522 203.504L397.987 209.611L383.323 206.587L380.55 160.46C368.571 147.522 368.522 135.428 380.387 132.484C398.729 129.908 396.699 149.801 393.373 161.468Z" fill="#FA5C63"/>
</g>
<path d="M240.224 165.6C169.466 182.409 154.258 320.983 156.151 386.653C156.16 386.958 156.534 387.073 156.74 386.849L234.439 302.393C240.156 329.071 303.97 346.402 335.162 351.733L347.412 322.809L335.162 316.344L341.967 248.629L383.822 269.045C384.502 279.027 391.852 297.901 415.808 293.545C439.764 289.19 422.16 227.758 410.364 197.587C397.297 205.753 385.637 202.804 381.44 200.309L379.739 216.302C375.428 203.712 359.254 182.342 329.037 197.587C298.82 212.831 287.183 176.943 285.141 157.093C271.53 157.093 249.525 162.765 240.224 165.6Z" fill="#9ED1B9"/>
<path d="M546.63 447.29C572.422 447.29 594.064 442.192 599.983 435.316V448.679C599.983 450.091 599.325 451.415 598.099 452.117C583.182 460.66 533.441 473.12 495.938 452.163C494.61 451.421 493.812 450 493.812 448.478V435.889C500.411 442.473 521.56 447.29 546.63 447.29Z" fill="#D88000"/>
<path d="M546.63 415.756C576.98 415.756 601.583 422.815 601.583 431.523C601.583 432.831 601.028 434.101 599.983 435.316C594.064 442.192 572.422 447.29 546.63 447.29C521.56 447.29 500.411 442.473 493.812 435.889C492.422 434.503 491.677 433.038 491.677 431.523C491.677 422.815 516.281 415.756 546.63 415.756Z" fill="#FFC533"/>
<g filter="url(#filter1_i_237_28)">
<path d="M546.63 443.923C522.763 443.923 503.415 438.371 503.415 431.523C503.415 424.675 522.763 419.124 546.63 419.124C570.498 419.124 589.846 424.675 589.846 431.523C589.846 438.371 570.498 443.923 546.63 443.923Z" fill="#FFC533"/>
</g>
<path d="M537.701 431.491C563.493 431.491 585.135 426.393 591.053 419.517V432.88C591.053 434.292 590.395 435.616 589.17 436.318C574.252 444.861 524.511 457.321 487.008 436.364C485.68 435.622 484.882 434.201 484.882 432.679V420.09C491.481 426.674 512.63 431.491 537.701 431.491Z" fill="#D88000"/>
<path d="M537.701 399.957C568.05 399.957 592.653 407.016 592.653 415.724C592.653 417.032 592.099 418.302 591.053 419.517C585.135 426.393 563.493 431.491 537.701 431.491C512.63 431.491 491.481 426.674 484.882 420.09C483.492 418.704 482.748 417.239 482.748 415.724C482.748 407.016 507.351 399.957 537.701 399.957Z" fill="#FFC533"/>
<g filter="url(#filter2_i_237_28)">
<path d="M537.701 428.123C513.833 428.123 494.485 422.572 494.485 415.724C494.485 408.876 513.833 403.325 537.701 403.325C561.568 403.325 580.916 408.876 580.916 415.724C580.916 422.572 561.568 428.123 537.701 428.123Z" fill="#FFC533"/>
</g>
<path d="M583.584 425.967V437.288" stroke="#9F5521" stroke-width="2.06073" stroke-linecap="round"/>
<path d="M572.913 429.202V441.601" stroke="#9F5521" stroke-width="2.06073" stroke-linecap="round"/>
<path d="M561.176 430.819V444.296" stroke="#9F5521" stroke-width="2.06073" stroke-linecap="round"/>
<path d="M517.96 431.358V444.836" stroke="#9F5521" stroke-width="2.06073" stroke-linecap="round"/>
<path d="M507.29 430.28V442.679" stroke="#9F5521" stroke-width="2.06073" stroke-linecap="round"/>
<path d="M498.753 428.124V439.445" stroke="#9F5521" stroke-width="2.06073" stroke-linecap="round"/>
<path d="M491.284 424.889V436.21" stroke="#9F5521" stroke-width="2.06073" stroke-linecap="round"/>
<path d="M546.63 407.449C572.422 407.449 594.064 402.351 599.983 395.475V408.838C599.983 410.25 599.325 411.574 598.099 412.276C583.182 420.82 533.441 433.28 495.938 412.323C494.61 411.58 493.812 410.159 493.812 408.637V396.048C500.411 402.633 521.56 407.449 546.63 407.449Z" fill="#D88000"/>
<path d="M546.63 375.915C576.98 375.915 601.583 382.975 601.583 391.682C601.583 392.99 601.028 394.261 599.983 395.475C594.064 402.351 572.422 407.449 546.63 407.449C521.56 407.449 500.411 402.633 493.812 396.048C492.422 394.662 491.677 393.197 491.677 391.682C491.677 382.975 516.281 375.915 546.63 375.915Z" fill="#FFC533"/>
<g filter="url(#filter3_i_237_28)">
<path d="M546.63 404.082C522.763 404.082 503.415 398.53 503.415 391.682C503.415 384.834 522.763 379.283 546.63 379.283C570.498 379.283 589.846 384.834 589.846 391.682C589.846 398.53 570.498 404.082 546.63 404.082Z" fill="#FFC533"/>
</g>
<path d="M592.513 401.925V413.247" stroke="#9F5521" stroke-width="2.06073" stroke-linecap="round"/>
<path d="M581.843 405.16V417.559" stroke="#9F5521" stroke-width="2.06073" stroke-linecap="round"/>
<path d="M570.105 406.777V420.255" stroke="#9F5521" stroke-width="2.06073" stroke-linecap="round"/>
<path d="M558.901 408.394V421.872" stroke="#9F5521" stroke-width="2.06073" stroke-linecap="round"/>
<path d="M548.231 408.394V421.872" stroke="#9F5521" stroke-width="2.06073" stroke-linecap="round"/>
<path d="M537.56 408.394V421.872" stroke="#9F5521" stroke-width="2.06073" stroke-linecap="round"/>
<path d="M526.89 407.317V420.794" stroke="#9F5521" stroke-width="2.06073" stroke-linecap="round"/>
<path d="M516.22 406.238V418.637" stroke="#9F5521" stroke-width="2.06073" stroke-linecap="round"/>
<path d="M507.683 404.082V415.403" stroke="#9F5521" stroke-width="2.06073" stroke-linecap="round"/>
<path d="M500.214 400.847V412.168" stroke="#9F5521" stroke-width="2.06073" stroke-linecap="round"/>
<path d="M537.701 391.65C563.493 391.65 585.135 386.552 591.053 379.676V393.039C591.053 394.451 590.395 395.775 589.17 396.477C574.252 405.021 524.511 417.481 487.008 396.524C485.68 395.781 484.882 394.36 484.882 392.838V380.249C491.481 386.833 512.63 391.65 537.701 391.65Z" fill="#D88000"/>
<path d="M537.701 360.116C568.05 360.116 592.653 367.175 592.653 375.883C592.653 377.191 592.099 378.461 591.053 379.676C585.135 386.552 563.493 391.65 537.701 391.65C512.63 391.65 491.481 386.833 484.882 380.249C483.492 378.863 482.748 377.398 482.748 375.883C482.748 367.175 507.351 360.116 537.701 360.116Z" fill="#FFC533"/>
<g filter="url(#filter4_i_237_28)">
<path d="M537.701 388.283C513.833 388.283 494.485 382.731 494.485 375.883C494.485 369.035 513.833 363.484 537.701 363.484C561.568 363.484 580.916 369.035 580.916 375.883C580.916 382.731 561.568 388.283 537.701 388.283Z" fill="#FFC533"/>
</g>
<path d="M583.584 386.126V397.447" stroke="#9F5521" stroke-width="2.06073" stroke-linecap="round"/>
<path d="M572.913 389.361V401.76" stroke="#9F5521" stroke-width="2.06073" stroke-linecap="round"/>
<path d="M561.176 390.978V404.456" stroke="#9F5521" stroke-width="2.06073" stroke-linecap="round"/>
<path d="M549.972 392.595V406.073" stroke="#9F5521" stroke-width="2.06073" stroke-linecap="round"/>
<path d="M539.301 392.595V406.073" stroke="#9F5521" stroke-width="2.06073" stroke-linecap="round"/>
<path d="M528.631 392.595V406.073" stroke="#9F5521" stroke-width="2.06073" stroke-linecap="round"/>
<path d="M517.96 391.517V404.995" stroke="#9F5521" stroke-width="2.06073" stroke-linecap="round"/>
<path d="M507.29 390.439V402.838" stroke="#9F5521" stroke-width="2.06073" stroke-linecap="round"/>
<path d="M498.753 388.283V399.604" stroke="#9F5521" stroke-width="2.06073" stroke-linecap="round"/>
<path d="M491.284 385.048V396.369" stroke="#9F5521" stroke-width="2.06073" stroke-linecap="round"/>
<path d="M548.004 367.609C573.796 367.609 595.438 362.51 601.356 355.635V368.997C601.356 370.409 600.698 371.733 599.473 372.435C584.556 380.979 534.814 393.439 497.312 372.482C495.983 371.739 495.185 370.318 495.185 368.796V356.208C501.785 362.792 522.934 367.609 548.004 367.609Z" fill="#D88000"/>
<path d="M548.004 336.075C578.354 336.075 602.957 343.134 602.957 351.842C602.957 353.149 602.402 354.42 601.356 355.635C595.438 362.51 573.796 367.609 548.004 367.609C522.934 367.609 501.785 362.792 495.185 356.208C493.796 354.821 493.051 353.356 493.051 351.842C493.051 343.134 517.655 336.075 548.004 336.075Z" fill="#FFC533"/>
<g filter="url(#filter5_i_237_28)">
<path d="M548.004 364.241C524.137 364.241 504.789 358.69 504.789 351.842C504.789 344.994 524.137 339.442 548.004 339.442C571.871 339.442 591.219 344.994 591.219 351.842C591.219 358.69 571.871 364.241 548.004 364.241Z" fill="#FFC533"/>
</g>
<path d="M593.887 362.085V373.406" stroke="#9F5521" stroke-width="2.06073" stroke-linecap="round"/>
<path d="M583.217 365.319V377.719" stroke="#9F5521" stroke-width="2.06073" stroke-linecap="round"/>
<path d="M571.479 366.936V380.414" stroke="#9F5521" stroke-width="2.06073" stroke-linecap="round"/>
<path d="M560.275 368.554V382.031" stroke="#9F5521" stroke-width="2.06073" stroke-linecap="round"/>
<path d="M549.605 368.554V382.031" stroke="#9F5521" stroke-width="2.06073" stroke-linecap="round"/>
<path d="M538.934 368.554V382.031" stroke="#9F5521" stroke-width="2.06073" stroke-linecap="round"/>
<path d="M528.264 367.476V380.953" stroke="#9F5521" stroke-width="2.06073" stroke-linecap="round"/>
<path d="M517.593 366.397V378.797" stroke="#9F5521" stroke-width="2.06073" stroke-linecap="round"/>
<path d="M509.057 364.241V375.562" stroke="#9F5521" stroke-width="2.06073" stroke-linecap="round"/>
<path d="M501.588 361.006V372.327" stroke="#9F5521" stroke-width="2.06073" stroke-linecap="round"/>
<path d="M539.074 350.436C564.866 350.436 586.508 345.338 592.427 338.462V351.824C592.427 353.236 591.768 354.561 590.543 355.262C575.626 363.806 525.885 376.266 488.382 355.309C487.053 354.566 486.256 353.145 486.256 351.623V339.035C492.855 345.619 514.004 350.436 539.074 350.436Z" fill="#D88000"/>
<path d="M539.074 318.902C569.424 318.902 594.027 325.961 594.027 334.669C594.027 335.976 593.472 337.247 592.427 338.462C586.508 345.338 564.866 350.436 539.074 350.436C514.004 350.436 492.855 345.619 486.256 339.035C484.866 337.648 484.121 336.183 484.121 334.669C484.121 325.961 508.725 318.902 539.074 318.902Z" fill="#FFC533"/>
<g filter="url(#filter6_i_237_28)">
<path d="M539.074 347.068C515.207 347.068 495.859 341.517 495.859 334.669C495.859 327.821 515.207 322.269 539.074 322.269C562.941 322.269 582.29 327.821 582.29 334.669C582.29 341.517 562.941 347.068 539.074 347.068Z" fill="#FFC533"/>
</g>
<path d="M584.957 344.912V356.233" stroke="#9F5521" stroke-width="2.06073" stroke-linecap="round"/>
<path d="M574.287 348.146V360.546" stroke="#9F5521" stroke-width="2.06073" stroke-linecap="round"/>
<path d="M562.549 349.764V363.241" stroke="#9F5521" stroke-width="2.06073" stroke-linecap="round"/>
<path d="M551.345 351.381V364.858" stroke="#9F5521" stroke-width="2.06073" stroke-linecap="round"/>
<path d="M540.675 351.381V364.858" stroke="#9F5521" stroke-width="2.06073" stroke-linecap="round"/>
<path d="M530.004 351.381V364.858" stroke="#9F5521" stroke-width="2.06073" stroke-linecap="round"/>
<path d="M519.334 350.303V363.78" stroke="#9F5521" stroke-width="2.06073" stroke-linecap="round"/>
<path d="M508.664 349.225V361.624" stroke="#9F5521" stroke-width="2.06073" stroke-linecap="round"/>
<path d="M500.127 347.068V358.389" stroke="#9F5521" stroke-width="2.06073" stroke-linecap="round"/>
<path d="M492.658 343.834V355.155" stroke="#9F5521" stroke-width="2.06073" stroke-linecap="round"/>
<path d="M543.883 329.142C569.675 329.142 591.317 324.043 597.235 317.168V330.53C597.235 331.942 596.577 333.266 595.352 333.968C580.435 342.512 530.693 354.972 493.191 334.015C491.862 333.272 491.064 331.851 491.064 330.329V317.741C497.663 324.325 518.812 329.142 543.883 329.142Z" fill="#D88000"/>
<path d="M543.883 297.608C574.232 297.608 598.836 304.667 598.836 313.375C598.836 314.682 598.281 315.953 597.235 317.168C591.317 324.043 569.675 329.142 543.883 329.142C518.812 329.142 497.663 324.325 491.064 317.741C489.674 316.354 488.93 314.889 488.93 313.375C488.93 304.667 513.533 297.608 543.883 297.608Z" fill="#FFC533"/>
<g filter="url(#filter7_i_237_28)">
<path d="M543.883 325.774C520.015 325.774 500.667 320.222 500.667 313.375C500.667 306.527 520.015 300.975 543.883 300.975C567.75 300.975 587.098 306.527 587.098 313.375C587.098 320.222 567.75 325.774 543.883 325.774Z" fill="#FFC533"/>
</g>
<path d="M589.766 323.618V334.939" stroke="#9F5521" stroke-width="2.06073" stroke-linecap="round"/>
<path d="M579.095 326.852V339.251" stroke="#9F5521" stroke-width="2.06073" stroke-linecap="round"/>
<path d="M567.358 328.469V341.947" stroke="#9F5521" stroke-width="2.06073" stroke-linecap="round"/>
<path d="M556.154 330.087V343.564" stroke="#9F5521" stroke-width="2.06073" stroke-linecap="round"/>
<path d="M545.483 330.087V343.564" stroke="#9F5521" stroke-width="2.06073" stroke-linecap="round"/>
<path d="M534.813 330.087V343.564" stroke="#9F5521" stroke-width="2.06073" stroke-linecap="round"/>
<path d="M524.142 329.009V342.486" stroke="#9F5521" stroke-width="2.06073" stroke-linecap="round"/>
<path d="M513.472 327.93V340.33" stroke="#9F5521" stroke-width="2.06073" stroke-linecap="round"/>
<path d="M504.936 325.774V337.095" stroke="#9F5521" stroke-width="2.06073" stroke-linecap="round"/>
<path d="M497.466 322.539V333.86" stroke="#9F5521" stroke-width="2.06073" stroke-linecap="round"/>
<path d="M534.953 308.534C560.745 308.534 582.387 303.436 588.305 296.56V309.923C588.305 311.335 587.647 312.659 586.422 313.361C571.505 321.904 521.763 334.364 484.261 313.407C482.932 312.665 482.134 311.244 482.134 309.722V297.133C488.733 303.717 509.883 308.534 534.953 308.534Z" fill="#D88000"/>
<path d="M534.953 277C565.303 277 589.906 284.059 589.906 292.767C589.906 294.075 589.351 295.345 588.305 296.56C582.387 303.436 560.745 308.534 534.953 308.534C509.883 308.534 488.733 303.717 482.134 297.133C480.744 295.747 480 294.282 480 292.767C480 284.059 504.603 277 534.953 277Z" fill="#FFC533"/>
<g filter="url(#filter8_i_237_28)">
<path d="M534.953 305.167C511.086 305.167 491.737 299.615 491.737 292.767C491.737 285.919 511.086 280.368 534.953 280.368C558.82 280.368 578.168 285.919 578.168 292.767C578.168 299.615 558.82 305.167 534.953 305.167Z" fill="#FFC533"/>
</g>
<path d="M580.836 303.01V314.331" stroke="#9F5521" stroke-width="2.06073" stroke-linecap="round"/>
<path d="M570.165 306.245V318.644" stroke="#9F5521" stroke-width="2.06073" stroke-linecap="round"/>
<path d="M558.428 307.862V321.339" stroke="#9F5521" stroke-width="2.06073" stroke-linecap="round"/>
<path d="M547.224 309.479V322.957" stroke="#9F5521" stroke-width="2.06073" stroke-linecap="round"/>
<path d="M536.553 309.479V322.957" stroke="#9F5521" stroke-width="2.06073" stroke-linecap="round"/>
<path d="M525.883 309.479V322.957" stroke="#9F5521" stroke-width="2.06073" stroke-linecap="round"/>
<path d="M515.213 308.401V321.879" stroke="#9F5521" stroke-width="2.06073" stroke-linecap="round"/>
<path d="M504.542 307.323V319.722" stroke="#9F5521" stroke-width="2.06073" stroke-linecap="round"/>
<path d="M496.006 305.167V316.488" stroke="#9F5521" stroke-width="2.06073" stroke-linecap="round"/>
<path d="M488.536 301.932V313.253" stroke="#9F5521" stroke-width="2.06073" stroke-linecap="round"/>
<defs>
<filter id="filter0_i_237_28" x="371.527" y="132.256" width="37.9951" height="77.3551" filterUnits="userSpaceOnUse" color-interpolation-filters="sRGB">
<feFlood flood-opacity="0" result="BackgroundImageFix"/>
<feBlend mode="normal" in="SourceGraphic" in2="BackgroundImageFix" result="shape"/>
<feColorMatrix in="SourceAlpha" type="matrix" values="0 0 0 0 0 0 0 0 0 0 0 0 0 0 0 0 0 0 127 0" result="hardAlpha"/>
<feOffset dx="2.04168" dy="-2.04168"/>
<feComposite in2="hardAlpha" operator="arithmetic" k2="-1" k3="1"/>
<feColorMatrix type="matrix" values="0 0 0 0 0.950521 0 0 0 0 0.254014 0 0 0 0 0.284872 0 0 0 1 0"/>
<feBlend mode="normal" in2="shape" result="effect1_innerShadow_237_28"/>
</filter>
<filter id="filter1_i_237_28" x="503.415" y="419.124" width="86.4308" height="24.7986" filterUnits="userSpaceOnUse" color-interpolation-filters="sRGB">
<feFlood flood-opacity="0" result="BackgroundImageFix"/>
<feBlend mode="normal" in="SourceGraphic" in2="BackgroundImageFix" result="shape"/>
<feColorMatrix in="SourceAlpha" type="matrix" values="0 0 0 0 0 0 0 0 0 0 0 0 0 0 0 0 0 0 127 0" result="hardAlpha"/>
<feOffset dy="2.89049"/>
<feComposite in2="hardAlpha" operator="arithmetic" k2="-1" k3="1"/>
<feColorMatrix type="matrix" values="0 0 0 0 0.847059 0 0 0 0 0.501961 0 0 0 0 0 0 0 0 1 0"/>
<feBlend mode="normal" in2="shape" result="effect1_innerShadow_237_28"/>
</filter>
<filter id="filter2_i_237_28" x="494.485" y="403.325" width="86.4308" height="24.7986" filterUnits="userSpaceOnUse" color-interpolation-filters="sRGB">
<feFlood flood-opacity="0" result="BackgroundImageFix"/>
<feBlend mode="normal" in="SourceGraphic" in2="BackgroundImageFix" result="shape"/>
<feColorMatrix in="SourceAlpha" type="matrix" values="0 0 0 0 0 0 0 0 0 0 0 0 0 0 0 0 0 0 127 0" result="hardAlpha"/>
<feOffset dy="2.89049"/>
<feComposite in2="hardAlpha" operator="arithmetic" k2="-1" k3="1"/>
<feColorMatrix type="matrix" values="0 0 0 0 0.847059 0 0 0 0 0.501961 0 0 0 0 0 0 0 0 1 0"/>
<feBlend mode="normal" in2="shape" result="effect1_innerShadow_237_28"/>
</filter>
<filter id="filter3_i_237_28" x="503.415" y="379.283" width="86.4308" height="24.7986" filterUnits="userSpaceOnUse" color-interpolation-filters="sRGB">
<feFlood flood-opacity="0" result="BackgroundImageFix"/>
<feBlend mode="normal" in="SourceGraphic" in2="BackgroundImageFix" result="shape"/>
<feColorMatrix in="SourceAlpha" type="matrix" values="0 0 0 0 0 0 0 0 0 0 0 0 0 0 0 0 0 0 127 0" result="hardAlpha"/>
<feOffset dy="2.89049"/>
<feComposite in2="hardAlpha" operator="arithmetic" k2="-1" k3="1"/>
<feColorMatrix type="matrix" values="0 0 0 0 0.847059 0 0 0 0 0.501961 0 0 0 0 0 0 0 0 1 0"/>
<feBlend mode="normal" in2="shape" result="effect1_innerShadow_237_28"/>
</filter>
<filter id="filter4_i_237_28" x="494.485" y="363.484" width="86.4308" height="24.7986" filterUnits="userSpaceOnUse" color-interpolation-filters="sRGB">
<feFlood flood-opacity="0" result="BackgroundImageFix"/>
<feBlend mode="normal" in="SourceGraphic" in2="BackgroundImageFix" result="shape"/>
<feColorMatrix in="SourceAlpha" type="matrix" values="0 0 0 0 0 0 0 0 0 0 0 0 0 0 0 0 0 0 127 0" result="hardAlpha"/>
<feOffset dy="2.89049"/>
<feComposite in2="hardAlpha" operator="arithmetic" k2="-1" k3="1"/>
<feColorMatrix type="matrix" values="0 0 0 0 0.847059 0 0 0 0 0.501961 0 0 0 0 0 0 0 0 1 0"/>
<feBlend mode="normal" in2="shape" result="effect1_innerShadow_237_28"/>
</filter>
<filter id="filter5_i_237_28" x="504.789" y="339.442" width="86.4308" height="24.7986" filterUnits="userSpaceOnUse" color-interpolation-filters="sRGB">
<feFlood flood-opacity="0" result="BackgroundImageFix"/>
<feBlend mode="normal" in="SourceGraphic" in2="BackgroundImageFix" result="shape"/>
<feColorMatrix in="SourceAlpha" type="matrix" values="0 0 0 0 0 0 0 0 0 0 0 0 0 0 0 0 0 0 127 0" result="hardAlpha"/>
<feOffset dy="2.89049"/>
<feComposite in2="hardAlpha" operator="arithmetic" k2="-1" k3="1"/>
<feColorMatrix type="matrix" values="0 0 0 0 0.847059 0 0 0 0 0.501961 0 0 0 0 0 0 0 0 1 0"/>
<feBlend mode="normal" in2="shape" result="effect1_innerShadow_237_28"/>
</filter>
<filter id="filter6_i_237_28" x="495.859" y="322.269" width="86.4308" height="24.7986" filterUnits="userSpaceOnUse" color-interpolation-filters="sRGB">
<feFlood flood-opacity="0" result="BackgroundImageFix"/>
<feBlend mode="normal" in="SourceGraphic" in2="BackgroundImageFix" result="shape"/>
<feColorMatrix in="SourceAlpha" type="matrix" values="0 0 0 0 0 0 0 0 0 0 0 0 0 0 0 0 0 0 127 0" result="hardAlpha"/>
<feOffset dy="2.89049"/>
<feComposite in2="hardAlpha" operator="arithmetic" k2="-1" k3="1"/>
<feColorMatrix type="matrix" values="0 0 0 0 0.847059 0 0 0 0 0.501961 0 0 0 0 0 0 0 0 1 0"/>
<feBlend mode="normal" in2="shape" result="effect1_innerShadow_237_28"/>
</filter>
<filter id="filter7_i_237_28" x="500.667" y="300.975" width="86.4308" height="24.7986" filterUnits="userSpaceOnUse" color-interpolation-filters="sRGB">
<feFlood flood-opacity="0" result="BackgroundImageFix"/>
<feBlend mode="normal" in="SourceGraphic" in2="BackgroundImageFix" result="shape"/>
<feColorMatrix in="SourceAlpha" type="matrix" values="0 0 0 0 0 0 0 0 0 0 0 0 0 0 0 0 0 0 127 0" result="hardAlpha"/>
<feOffset dy="2.89049"/>
<feComposite in2="hardAlpha" operator="arithmetic" k2="-1" k3="1"/>
<feColorMatrix type="matrix" values="0 0 0 0 0.847059 0 0 0 0 0.501961 0 0 0 0 0 0 0 0 1 0"/>
<feBlend mode="normal" in2="shape" result="effect1_innerShadow_237_28"/>
</filter>
<filter id="filter8_i_237_28" x="491.737" y="280.368" width="86.4308" height="24.7986" filterUnits="userSpaceOnUse" color-interpolation-filters="sRGB">
<feFlood flood-opacity="0" result="BackgroundImageFix"/>
<feBlend mode="normal" in="SourceGraphic" in2="BackgroundImageFix" result="shape"/>
<feColorMatrix in="SourceAlpha" type="matrix" values="0 0 0 0 0 0 0 0 0 0 0 0 0 0 0 0 0 0 127 0" result="hardAlpha"/>
<feOffset dy="2.89049"/>
<feComposite in2="hardAlpha" operator="arithmetic" k2="-1" k3="1"/>
<feColorMatrix type="matrix" values="0 0 0 0 0.847059 0 0 0 0 0.501961 0 0 0 0 0 0 0 0 1 0"/>
<feBlend mode="normal" in2="shape" result="effect1_innerShadow_237_28"/>
</filter>
</defs>
</svg>
