<svg width="1440" height="160" viewBox="0 0 1440 160" fill="none" xmlns="http://www.w3.org/2000/svg">
<ellipse cx="721.5" cy="189.5" rx="787.5" ry="189.5" fill="#D4EFE8"/>
<path d="M112.361 132.61C29.7577 132.61 -5.54757 88.8601 -13 63.722V289.298L1453 298L1444.22 89.1018C1444.22 93.9361 1434.95 106.94 1397.91 120.283C1351.59 136.961 1346 120.283 1302.09 120.283C1258.17 120.283 1260.57 131.885 1202.28 134.786C1143.99 137.686 1116.04 105.055 1038.59 97.0784C961.139 89.1018 905.246 103.605 847.756 100.704C790.266 97.8035 763.118 65.1723 701.635 67.3477C640.153 69.5231 597.833 41.9678 524.374 49.2192C450.914 56.4706 448.518 99.979 400.61 94.903C362.283 90.8422 334.07 110.614 324.755 121.008C310.063 133.19 296.46 133.583 293 136C172.43 186.035 174.642 132.61 112.361 132.61Z" fill="white"/>
</svg>
