<svg width="388" height="515" viewBox="0 0 388 515" fill="none" xmlns="http://www.w3.org/2000/svg">
<path d="M244.895 399.307C247.197 398.625 248.563 396.261 248.006 393.925L216.664 262.631C216.063 260.113 213.475 258.614 210.992 259.345L4.15243 320.271C1.83079 320.955 0.460083 323.346 1.04352 325.695L33.6575 456.998C34.2783 459.497 36.8587 460.973 39.3276 460.241L131.505 432.918L147.773 428.096L244.895 399.307Z" fill="#F0F9E8"/>
<path d="M131.505 432.918L154.552 515L168.561 507.441L147.773 428.096L131.505 432.918Z" fill="#298B61"/>
<path d="M192.832 282L173.865 313.477C172.117 316.379 168.791 317.941 165.442 317.433L147.718 314.748C143.296 314.078 138.95 316.359 136.99 320.38L124.24 346.533C122.995 349.087 120.238 350.538 117.427 350.119L100.152 347.541C94.6015 346.712 89.0946 349.291 86.1764 354.085L64.9507 388.956L62.1234 378.903C61.3647 376.205 58.6124 374.587 55.8865 375.236C53.1576 375.886 51.4295 378.576 51.9726 381.328L57.9754 411.742L90.0516 404.339C92.5075 403.773 94.2472 401.586 94.2472 399.065C94.2472 395.721 91.2439 393.176 87.9446 393.726L74.7162 395.931L93.7387 363.83C95.7215 360.484 99.5769 358.726 103.404 359.421L122.9 362.966C125.758 363.486 128.616 362.048 129.902 359.443L145.865 327.107L168.243 331.015C172.411 331.742 176.598 329.829 178.775 326.2L201.668 288.045L192.832 282Z" fill="#F24149"/>
<circle cx="309.974" cy="257.291" r="56.7691" transform="rotate(31.3792 309.974 257.291)" fill="#FFC533"/>
<circle cx="309.974" cy="257.291" r="46.5506" transform="rotate(31.3792 309.974 257.291)" fill="#FFD862"/>
<path d="M290.955 282.02L323.134 229.26L328.747 232.683L296.568 285.444L290.955 282.02ZM296.673 277.191C293.529 275.274 290.768 273.025 288.389 270.445C286.033 267.827 284.386 265.308 283.449 262.888L290.712 257.923C291.666 260.148 293.044 262.349 294.848 264.527C296.711 266.69 298.822 268.491 301.179 269.928C302.975 271.024 304.518 271.734 305.809 272.059C307.16 272.37 308.291 272.367 309.203 272.05C310.115 271.733 310.822 271.163 311.324 270.34C311.963 269.293 312.053 268.218 311.595 267.118C311.16 265.979 310.383 264.812 309.264 263.617C308.168 262.383 306.9 261.096 305.458 259.755C304.078 258.4 302.724 256.958 301.397 255.43C300.107 253.925 299.04 252.35 298.195 250.705C297.35 249.06 296.908 247.302 296.869 245.43C296.867 243.581 297.506 241.608 298.784 239.513C300.153 237.268 301.996 235.594 304.311 234.49C306.687 233.373 309.422 233.013 312.516 233.411C315.67 233.795 319.1 235.116 322.804 237.376C325.274 238.882 327.524 240.665 329.553 242.724C331.606 244.746 333.195 246.896 334.321 249.174L327.304 254.366C326.109 252.2 324.744 250.315 323.207 248.71C321.693 247.068 320.057 245.711 318.298 244.638C316.539 243.565 314.973 242.893 313.599 242.62C312.226 242.346 311.09 242.398 310.193 242.775C309.319 243.115 308.619 243.715 308.094 244.575C307.478 245.586 307.388 246.66 307.823 247.798C308.281 248.899 309.069 250.047 310.188 251.243C311.307 252.439 312.557 253.714 313.938 255.07C315.356 256.448 316.721 257.871 318.033 259.339C319.383 260.83 320.481 262.397 321.326 264.042C322.171 265.687 322.594 267.434 322.596 269.283C322.635 271.155 322.026 273.12 320.771 275.178C319.425 277.386 317.575 279.03 315.222 280.11C312.869 281.191 310.115 281.539 306.961 281.155C303.844 280.795 300.415 279.473 296.673 277.191Z" fill="#D88000"/>
<circle cx="174.545" cy="170.546" r="42.3976" transform="rotate(-16.2044 174.545 170.546)" fill="#FFC533"/>
<circle cx="174.545" cy="170.545" r="34.766" transform="rotate(-16.2044 174.545 170.545)" fill="#FFD862"/>
<path d="M178.655 193.684L165.775 149.363L170.49 147.993L183.37 192.314L178.655 193.684ZM178.873 188.099C176.232 188.866 173.602 189.256 170.98 189.268C168.35 189.248 166.131 188.887 164.325 188.185L165.247 181.679C166.954 182.274 168.862 182.623 170.971 182.725C173.102 182.788 175.158 182.531 177.139 181.956C178.647 181.517 179.817 181.024 180.646 180.476C181.498 179.888 182.066 179.263 182.351 178.6C182.635 177.938 182.677 177.261 182.476 176.57C182.22 175.689 181.674 175.098 180.836 174.796C179.989 174.463 178.954 174.304 177.731 174.318C176.499 174.301 175.151 174.352 173.685 174.471C172.242 174.55 170.765 174.57 169.254 174.532C167.775 174.485 166.369 174.28 165.036 173.917C163.704 173.554 162.512 172.912 161.46 171.991C160.439 171.06 159.673 169.715 159.162 167.954C158.614 166.068 158.619 164.209 159.177 162.377C159.758 160.503 160.937 158.814 162.715 157.309C164.516 155.763 166.972 154.538 170.084 153.633C172.159 153.031 174.275 152.688 176.433 152.607C178.581 152.493 180.568 152.7 182.391 153.227L181.719 159.712C179.923 159.279 178.195 159.082 176.536 159.121C174.868 159.129 173.296 159.347 171.818 159.777C170.341 160.206 169.181 160.731 168.338 161.35C167.496 161.97 166.952 162.622 166.708 163.307C166.455 163.96 166.433 164.648 166.643 165.371C166.89 166.22 167.437 166.811 168.284 167.144C169.121 167.446 170.152 167.59 171.375 167.575C172.597 167.561 173.93 167.514 175.373 167.436C176.848 167.348 178.32 167.312 179.791 167.328C181.292 167.335 182.71 167.52 184.042 167.882C185.375 168.245 186.551 168.892 187.572 169.822C188.623 170.744 189.401 172.069 189.903 173.798C190.442 175.652 190.417 177.5 189.827 179.342C189.237 181.184 188.042 182.878 186.241 184.423C184.472 185.96 182.016 187.185 178.873 188.099Z" fill="#D88000"/>
<circle cx="202.346" cy="46.346" r="35.8776" transform="rotate(20.9834 202.346 46.346)" fill="#FFC533"/>
<circle cx="202.346" cy="46.3467" r="29.4196" transform="rotate(20.9834 202.346 46.3467)" fill="#FFD862"/>
<path d="M193.503 63.4688L207.489 27.0022L211.369 28.49L197.383 64.9566L193.503 63.4688ZM196.507 59.8146C194.334 58.9814 192.362 57.8984 190.588 56.5657C188.825 55.207 187.514 53.8291 186.656 52.4318L190.605 48.5173C191.451 49.7912 192.559 51.0023 193.928 52.1505C195.333 53.2828 196.851 54.1613 198.48 54.7862C199.721 55.2624 200.762 55.5279 201.601 55.5828C202.476 55.6217 203.179 55.4908 203.71 55.19C204.24 54.8892 204.615 54.4543 204.833 53.8853C205.111 53.1612 205.045 52.4831 204.634 51.851C204.234 51.1931 203.618 50.5563 202.786 49.9406C201.964 49.299 201.029 48.6436 199.98 47.9744C198.967 47.2893 197.961 46.5474 196.962 45.7489C195.989 44.9603 195.146 44.103 194.433 43.1769C193.72 42.2508 193.245 41.2082 193.007 40.049C192.795 38.8997 192.967 37.6009 193.522 36.1526C194.117 34.6008 195.072 33.35 196.386 32.4001C197.735 31.4343 199.394 30.8988 201.363 30.7935C203.367 30.6723 205.65 31.1027 208.21 32.0847C209.917 32.7393 211.519 33.591 213.015 34.6396C214.522 35.6624 215.755 36.8177 216.715 38.1055L212.945 42.1332C211.955 40.923 210.891 39.9068 209.753 39.0845C208.625 38.2364 207.453 37.5792 206.237 37.113C205.022 36.6468 203.971 36.4072 203.086 36.3941C202.201 36.381 201.501 36.5428 200.987 36.8794C200.482 37.1901 200.115 37.6429 199.887 38.2377C199.619 38.936 199.686 39.6141 200.086 40.272C200.496 40.904 201.117 41.5279 201.949 42.1436C202.781 42.7593 203.703 43.4098 204.716 44.0949C205.755 44.79 206.766 45.5189 207.749 46.2816C208.758 47.0543 209.619 47.9037 210.332 48.8297C211.045 49.7558 211.507 50.7935 211.719 51.9428C211.957 53.102 211.803 54.3928 211.257 55.8153C210.672 57.3412 209.71 58.5741 208.37 59.5141C207.031 60.454 205.359 60.9846 203.354 61.1058C201.376 61.2369 199.093 60.8065 196.507 59.8146Z" fill="#D88000"/>
</svg>
