<svg width="388" height="513" viewBox="0 0 388 513" fill="none" xmlns="http://www.w3.org/2000/svg">
<rect x="105.415" y="0.465759" width="284.287" height="589.498" rx="36.7201" transform="rotate(10.0389 105.415 0.465759)" fill="#1C1B2D"/>
<rect x="108.304" y="4.5997" width="276.266" height="582.363" rx="33.5621" transform="rotate(10.0389 108.304 4.5997)" fill="#23213B"/>
<rect x="77.9094" y="140.507" width="1.78236" height="41.9159" rx="0.789219" transform="rotate(10.0389 77.9094 140.507)" fill="#1C1B2D"/>
<rect x="68.7374" y="192.32" width="1.78236" height="41.9159" rx="0.789219" transform="rotate(10.0389 68.7374 192.32)" fill="#1C1B2D"/>
<rect x="84.7498" y="101.868" width="2.67354" height="20.512" rx="0.789219" transform="rotate(10.0389 84.7498 101.868)" fill="#1C1B2D"/>
<rect x="355.502" y="218.631" width="2.67354" height="65.1034" rx="0.789219" transform="rotate(10.0389 355.502 218.631)" fill="#1C1B2D"/>
<rect x="113.925" y="13.7466" width="261.116" height="566.31" rx="27.6794" transform="rotate(10.0389 113.925 13.7466)" fill="white"/>
<rect x="115.385" y="61.8642" width="242.634" height="44.6019" rx="4.46019" transform="rotate(10.0389 115.385 61.8642)" fill="#F8F9F9"/>
<rect x="122.692" y="71.7638" width="27.6532" height="27.6532" rx="13.8266" transform="rotate(10.0389 122.692 71.7638)" fill="#F24149"/>
<path d="M132.112 89.9767L134.532 80.6825L137.009 81.4051L134.071 90.5481L132.112 89.9767ZM131.831 94.5823C131.409 94.459 131.096 94.2219 130.893 93.871C130.702 93.5238 130.661 93.1646 130.77 92.7934C130.886 92.3966 131.117 92.103 131.464 91.9126C131.824 91.726 132.215 91.6943 132.638 91.8176C133.073 91.9445 133.379 92.1798 133.557 92.5232C133.747 92.8705 133.785 93.2425 133.669 93.6392C133.561 94.0104 133.333 94.2912 132.986 94.4816C132.651 94.6757 132.266 94.7093 131.831 94.5823Z" fill="white"/>
<path d="M165.784 98.0037L167.416 88.7807L168.997 89.0606L167.365 98.2836L165.784 98.0037ZM159.96 96.9727L161.593 87.7497L163.174 88.0296L161.541 97.2526L159.96 96.9727ZM162.022 93.1525L162.251 91.8613L167.034 92.708L166.805 93.9992L162.022 93.1525ZM168.631 98.5077L173.636 89.8818L175.402 90.1944L177.142 100.014L175.469 99.7183L174.18 91.8804L170.278 98.7993L168.631 98.5077ZM170.518 96.5996L171.161 95.4226L175.707 96.2273L175.907 97.5536L170.518 96.5996ZM179.568 100.444L180.974 92.4989L178.26 92.0184L178.486 90.7404L185.483 91.9789L185.256 93.257L182.542 92.7765L181.136 100.721L179.568 100.444ZM185.153 101.433L186.786 92.2096L188.367 92.4895L186.734 101.713L185.153 101.433ZM197.629 103.641L199.262 94.4182L200.843 94.6981L199.21 103.921L197.629 103.641ZM191.805 102.61L193.438 93.3872L195.019 93.6671L193.386 102.89L191.805 102.61ZM193.868 98.79L194.096 97.4988L198.879 98.3455L198.65 99.6367L193.868 98.79ZM200.476 104.145L205.482 95.5193L207.248 95.8319L208.988 105.652L207.315 105.356L206.025 97.5179L202.123 104.437L200.476 104.145ZM202.363 102.237L203.006 101.06L207.552 101.865L207.752 103.191L202.363 102.237ZM211.413 106.081L212.82 98.1364L210.106 97.6559L210.332 96.3779L217.328 97.6164L217.102 98.8945L214.388 98.414L212.981 106.359L211.413 106.081ZM216.999 107.07L218.631 97.8471L220.213 98.127L218.58 107.35L216.999 107.07ZM225.968 108.821C225.38 108.717 224.885 108.516 224.485 108.219C224.095 107.914 223.819 107.53 223.656 107.066C223.495 106.594 223.468 106.055 223.576 105.449L225.157 105.729C225.106 106.019 225.104 106.281 225.153 106.516C225.202 106.751 225.308 106.947 225.471 107.102C225.644 107.251 225.88 107.351 226.178 107.404C226.477 107.457 226.724 107.442 226.92 107.359C227.116 107.276 227.271 107.14 227.386 106.952C227.511 106.757 227.598 106.523 227.646 106.251L228.815 99.6498L230.396 99.9297L229.227 106.531C229.069 107.427 228.696 108.072 228.11 108.466C227.534 108.854 226.82 108.972 225.968 108.821ZM234.088 110.258C233.421 110.14 232.838 109.901 232.34 109.541C231.851 109.183 231.492 108.703 231.263 108.101C231.044 107.5 231.007 106.787 231.153 105.961L232.165 100.243L233.746 100.523L232.732 106.254C232.643 106.755 232.654 107.183 232.763 107.537C232.872 107.892 233.061 108.179 233.331 108.399C233.61 108.611 233.956 108.754 234.369 108.827C234.791 108.902 235.165 108.886 235.491 108.781C235.828 108.669 236.105 108.464 236.32 108.167C236.545 107.871 236.701 107.473 236.79 106.973L237.805 101.241L239.386 101.521L238.373 107.239C238.227 108.065 237.943 108.721 237.522 109.209C237.101 109.696 236.59 110.022 235.99 110.187C235.39 110.353 234.756 110.377 234.088 110.258ZM239.529 111.059L241.161 101.836L244.139 102.363C245.211 102.552 246.06 102.897 246.687 103.398C247.323 103.9 247.746 104.528 247.957 105.281C248.179 106.026 248.205 106.874 248.037 107.822C247.873 108.753 247.557 109.536 247.092 110.169C246.637 110.795 246.025 111.235 245.255 111.488C244.494 111.743 243.578 111.775 242.506 111.586L239.529 111.059ZM241.348 109.994L242.665 110.228C243.465 110.369 244.115 110.353 244.617 110.179C245.129 109.998 245.525 109.683 245.803 109.234C246.093 108.778 246.297 108.212 246.417 107.535C246.538 106.85 246.54 106.248 246.424 105.729C246.318 105.203 246.055 104.767 245.636 104.421C245.228 104.068 244.624 103.821 243.824 103.679L242.507 103.446L241.348 109.994ZM248.767 112.694L250.4 103.471L251.981 103.751L250.348 112.974L248.767 112.694ZM259.594 114.774C258.707 114.617 257.956 114.28 257.341 113.763C256.736 113.24 256.303 112.588 256.043 111.808C255.784 111.019 255.738 110.15 255.906 109.202C256.073 108.262 256.412 107.47 256.925 106.827C257.439 106.176 258.069 105.707 258.817 105.423C259.574 105.14 260.396 105.077 261.283 105.235C262.188 105.395 262.947 105.737 263.561 106.263C264.174 106.788 264.606 107.444 264.856 108.231C265.108 109.01 265.151 109.869 264.984 110.809C264.816 111.757 264.48 112.558 263.975 113.212C263.471 113.857 262.841 114.32 262.084 114.603C261.329 114.877 260.499 114.934 259.594 114.774ZM259.859 113.353C260.448 113.457 260.985 113.416 261.471 113.231C261.958 113.036 262.365 112.71 262.691 112.251C263.017 111.792 263.241 111.216 263.364 110.522C263.487 109.828 263.474 109.21 263.325 108.667C263.177 108.124 262.906 107.682 262.514 107.341C262.123 106.991 261.633 106.764 261.044 106.66C260.456 106.556 259.918 106.601 259.43 106.795C258.945 106.981 258.534 107.303 258.2 107.76C257.874 108.218 257.65 108.795 257.527 109.489C257.404 110.183 257.417 110.801 257.565 111.344C257.723 111.888 257.997 112.335 258.388 112.685C258.78 113.026 259.271 113.249 259.859 113.353ZM265.713 115.694L267.346 106.471L268.927 106.751L272.187 114.204L273.367 107.537L274.948 107.817L273.315 117.04L271.734 116.76L268.472 109.32L267.294 115.974L265.713 115.694ZM275.17 117.368L276.803 108.145L278.384 108.425L276.97 116.409L281.081 117.137L280.862 118.376L275.17 117.368ZM282.401 118.648L284.034 109.425L285.615 109.705L283.982 118.928L282.401 118.648ZM285.837 119.256L287.469 110.033L289.05 110.313L292.31 117.766L293.491 111.099L295.072 111.379L293.439 120.602L291.858 120.322L288.596 112.882L287.418 119.536L285.837 119.256ZM295.294 120.93L296.927 111.707L302.882 112.762L302.656 114.04L298.281 113.265L297.813 115.914L301.792 116.618L301.57 117.87L297.591 117.165L297.101 119.932L301.475 120.707L301.249 121.985L295.294 120.93Z" fill="#8C8A8A"/>
<path d="M328.566 115.318L329.437 110.399L330.14 110.523L331.98 114.741L332.648 110.967L333.351 111.092L332.48 116.011L331.777 115.886L329.936 111.676L329.269 115.442L328.566 115.318ZM335.073 116.557C334.74 116.498 334.454 116.367 334.215 116.166C333.98 115.964 333.809 115.712 333.704 115.408C333.604 115.101 333.586 114.764 333.651 114.399C333.717 114.024 333.852 113.712 334.055 113.463C334.26 113.209 334.509 113.029 334.803 112.922C335.098 112.814 335.411 112.79 335.744 112.849C336.081 112.909 336.367 113.039 336.602 113.24C336.837 113.441 337.005 113.693 337.106 113.996C337.212 114.3 337.232 114.639 337.165 115.014C337.099 115.389 336.964 115.7 336.76 115.949C336.562 116.199 336.315 116.378 336.021 116.485C335.726 116.593 335.41 116.616 335.073 116.557ZM335.18 115.952C335.372 115.986 335.554 115.97 335.725 115.904C335.901 115.838 336.052 115.723 336.178 115.556C336.309 115.386 336.4 115.163 336.449 114.887C336.497 114.61 336.491 114.373 336.43 114.173C336.369 113.969 336.268 113.806 336.125 113.685C335.987 113.563 335.824 113.486 335.637 113.453C335.45 113.42 335.268 113.436 335.092 113.502C334.916 113.567 334.763 113.685 334.631 113.855C334.505 114.021 334.417 114.242 334.369 114.519C334.32 114.795 334.325 115.035 334.386 115.239C334.452 115.439 334.554 115.6 334.692 115.721C334.835 115.843 334.997 115.92 335.18 115.952ZM338.272 117.036L337.859 113.31L338.554 113.433L338.805 116.522L338.673 116.491L340.051 113.698L340.838 113.838L341.174 116.934L341.039 116.917L342.328 114.101L343.038 114.227L341.371 117.584L340.647 117.456L340.291 114.226L340.431 114.251L338.988 117.163L338.272 117.036Z" fill="#B9B8B8"/>
<rect x="106.98" y="124.696" width="235.498" height="181.043" rx="4.2432" transform="rotate(10.0389 106.98 124.696)" fill="#F8F9F9"/>
<path d="M165.259 156.558C165.94 152.712 169.61 150.146 173.456 150.827L268.162 167.593C272.008 168.274 274.574 171.943 273.893 175.789L256.511 273.978L147.877 254.747L165.259 156.558Z" fill="#30A572"/>
<path d="M266.159 316.629C266.952 315.276 213.637 257.914 213.637 257.914C206.939 250.864 202.903 250.057 194.262 254.484C194.262 254.484 124.592 290.035 124.856 291.556L124.842 291.564C124.846 291.577 124.855 291.588 124.861 291.601C125.131 293.113 125.655 294.569 126.411 295.907C126.731 296.472 127.148 296.972 127.543 297.485L127.517 297.498C127.549 297.538 127.596 297.563 127.627 297.603C129.31 299.739 131.625 301.339 134.366 302.164C134.409 302.177 134.44 302.206 134.483 302.219L134.652 302.249C135.07 302.365 135.457 302.539 135.893 302.616L252.072 323.183C257.793 324.196 263.277 321.456 266.095 316.754C266.124 316.72 266.164 316.699 266.192 316.664L266.159 316.629Z" fill="#D6D6D6"/>
<path fill-rule="evenodd" clip-rule="evenodd" d="M125.238 291.216L204.978 250.882L266.026 316.139L279.266 241.345C280.035 237 278.619 232.774 275.805 229.796L204.978 250.882L145.694 206.763C142.029 208.594 139.248 212.077 138.479 216.422L125.238 291.216Z" fill="#EFF0F2"/>
<mask id="mask0_163_139" style="mask-type:alpha" maskUnits="userSpaceOnUse" x="147" y="150" width="128" height="124">
<path d="M165.259 156.558C165.94 152.712 169.61 150.146 173.456 150.827L268.162 167.593C272.008 168.274 274.574 171.943 273.893 175.789L256.511 273.978L147.877 254.747L165.259 156.558Z" fill="#EE4C37"/>
</mask>
<g mask="url(#mask0_163_139)">
<path d="M233.282 161.778C214.55 166.841 171.154 186.546 147.422 224.861C140.808 183.113 148.72 112.047 233.282 161.778Z" fill="#298B61"/>
</g>
<path d="M209.277 224.054C209.848 222.303 208.482 221.72 207.402 223.442C202.217 231.711 195.416 229.448 192.664 227.283C178.216 212.201 203.769 193.213 215.985 185.438C220.178 190.608 232.329 204.25 233.785 219.939C233.924 240.731 215.156 232.54 213.857 224.855C213.624 223.479 212.67 223.546 212.498 223.72C210.182 225.732 212.857 236.055 214.484 240.965L202.41 238.759C204.461 234.586 208.707 225.804 209.277 224.054Z" fill="#FFC533"/>
<path d="M173.371 181.144C173.485 180.795 173.213 180.679 172.997 181.022C171.963 182.671 170.607 182.22 170.058 181.788C167.176 178.78 172.273 174.993 174.709 173.442C175.545 174.473 177.969 177.194 178.259 180.323C178.287 184.47 174.544 182.837 174.285 181.304C174.238 181.029 174.048 181.043 174.014 181.078C173.552 181.479 174.085 183.538 174.41 184.517L172.001 184.077C172.411 183.245 173.257 181.493 173.371 181.144Z" fill="#FFC533"/>
<path d="M170.151 168.554L176.378 157.315L178.984 157.723L181.459 170.325L179.024 169.944L177.262 160.141L172.569 168.933L170.151 168.554ZM172.499 166.147L173.393 164.455L179.456 165.405L179.771 167.287L172.499 166.147Z" fill="white"/>
<rect x="204.101" y="36.05" width="76.6416" height="22.2957" rx="11.1478" transform="rotate(10.0389 204.101 36.05)" fill="#1C1B2D"/>
</svg>
